<svg viewBox="0 0 1024 1024" xmlns="http://www.w3.org/2000/svg" fill-rule="evenodd" clip-rule="evenodd" stroke-linejoin="round" stroke-miterlimit="2"><path d="M983.821 294.744c0-122.757-104.165-222.421-232.467-222.421H286.422c-128.302 0-232.467 99.664-232.467 222.421v444.843c0 122.758 104.165 222.422 232.467 222.422h464.932c128.302 0 232.467-99.664 232.467-222.422V294.744z" fill="url(#_Linear1)" transform="matrix(1.07542 0 0 1.12399 -46.025 -69.29)"/><path d="M762 762V302H553.967v41.707h166.321l.043 42.908h-.057l.014 41.707v291.966h-374.87V595.163h-.131l.131-84.615h-41.706V762H762z" fill="#fff" fill-rule="nonzero"/><path d="M267.214 475.762c6.22 12.435 34.76 6.951 41.712 0 6.95-6.951-6.951-34.76 0-41.712 6.95-6.95 34.76-6.95 41.711 0 6.952 6.951-6.95 34.76 0 41.712 6.952 6.951 34.761 6.951 41.712 0 6.951-6.951-6.95-34.76 0-41.712 6.951-6.95 34.76-6.95 41.712 0 6.951 6.951-6.951 34.76 0 41.712 6.951 6.951 34.75 6.951 41.701 0 6.951-6.951-6.95-34.76 0-41.712 6.951-6.95 34.76-6.95 41.712 0 6.951 6.951-6.951 34.76 0 41.712 6.951 6.951 35.492 12.435 41.712 0 6.95-13.902 6.95-69.516 0-83.418-6.22-12.435-35.492 12.434-41.712 0-6.951-13.902 6.951-69.516 0-83.419-6.22-12.434-34.76 6.952-41.712 0-6.95-6.95 6.951-34.76 0-41.711-6.95-6.951-34.76-6.951-41.711 0-6.952 6.95 6.95 34.76 0 41.711-6.952 6.952-34.761 6.952-41.712 0-6.951-6.95 6.951-34.76 0-41.711-6.951-6.951-34.76-6.951-41.712 0-6.951 6.95 6.951 34.76 0 41.711-6.951 6.952-35.486-12.434-41.701 0-6.951 13.903 6.95 69.517 0 83.419-6.22 12.434-35.492-12.435-41.712 0-6.951 13.902-6.951 69.516 0 83.418zm83.418-83.418c-6.95-6.951-6.95-34.76 0-41.712 6.951-6.951 34.76-6.951 41.712 0 6.951 6.951 6.951 34.76 0 41.712-6.951 6.95-34.76 6.95-41.712 0zm83.419 0c-6.952-6.951-6.952-34.76 0-41.712 6.95-6.951 34.76-6.951 41.711 0 6.951 6.951 6.951 34.76 0 41.712-6.95 6.95-34.76 6.95-41.711 0z" fill="#fff" fill-rule="nonzero"/><defs><linearGradient id="_Linear1" x1="0" y1="0" x2="1" y2="0" gradientUnits="userSpaceOnUse" gradientTransform="matrix(951.509 -907.173 948.142 910.394 42.123 970.108)"><stop offset="0" stop-color="#9801e4"/><stop offset="1" stop-color="#e30183"/></linearGradient></defs></svg>