<svg xmlns="http://www.w3.org/2000/svg" viewBox="0 0 512 512"><defs><filter id="c" color-interpolation-filters="sRGB"><feFlood flood-color="#000" flood-opacity=".118" result="flood"/><feComposite in="flood" in2="SourceGraphic" operator="in" result="composite1"/><feGaussianBlur in="composite1" result="blur" stdDeviation="2"/><feOffset result="offset"/><feComposite in="SourceGraphic" in2="offset" result="composite2"/></filter><filter id="b" color-interpolation-filters="sRGB"><feFlood flood-color="#000" flood-opacity=".118" result="flood"/><feComposite in="flood" in2="SourceGraphic" operator="in" result="composite1"/><feGaussianBlur in="composite1" result="blur" stdDeviation="2"/><feOffset result="offset"/><feComposite in="SourceGraphic" in2="offset" result="composite2"/></filter><filter id="f" color-interpolation-filters="sRGB"><feFlood flood-color="#000" flood-opacity=".118" result="flood"/><feComposite in="flood" in2="SourceGraphic" operator="in" result="composite1"/><feGaussianBlur in="composite1" result="blur" stdDeviation="2"/><feOffset result="offset"/><feComposite in="SourceGraphic" in2="offset" result="composite2"/></filter><filter id="e" color-interpolation-filters="sRGB"><feFlood flood-color="#000" flood-opacity=".118" result="flood"/><feComposite in="flood" in2="SourceGraphic" operator="in" result="composite1"/><feGaussianBlur in="composite1" result="blur" stdDeviation="2"/><feOffset result="offset"/><feComposite in="SourceGraphic" in2="offset" result="composite2"/></filter><filter id="d" color-interpolation-filters="sRGB"><feFlood flood-color="#000" flood-opacity=".118" result="flood"/><feComposite in="flood" in2="SourceGraphic" operator="in" result="composite1"/><feGaussianBlur in="composite1" result="blur" stdDeviation="2"/><feOffset result="offset"/><feComposite in="SourceGraphic" in2="offset" result="composite2"/></filter><filter id="g" color-interpolation-filters="sRGB"><feFlood flood-color="#000" flood-opacity=".118" result="flood"/><feComposite in="flood" in2="SourceGraphic" operator="in" result="composite1"/><feGaussianBlur in="composite1" result="blur" stdDeviation="2"/><feOffset result="offset"/><feComposite in="SourceGraphic" in2="offset" result="composite2"/></filter><filter id="h" color-interpolation-filters="sRGB"><feFlood flood-color="#000" flood-opacity=".118" result="flood"/><feComposite in="flood" in2="SourceGraphic" operator="in" result="composite1"/><feGaussianBlur in="composite1" result="blur" stdDeviation="2"/><feOffset result="offset"/><feComposite in="SourceGraphic" in2="offset" result="fbSourceGraphic"/><feColorMatrix in="fbSourceGraphic" result="fbSourceGraphicAlpha" values="0 0 0 -1 0 0 0 0 -1 0 0 0 0 -1 0 0 0 0 1 0"/><feFlood flood-color="#000" flood-opacity=".251" result="flood"/><feComposite in="flood" in2="fbSourceGraphic" operator="in" result="composite1"/><feGaussianBlur in="composite1" result="blur" stdDeviation="1"/><feOffset result="offset"/><feComposite in="fbSourceGraphic" in2="offset" result="composite2"/></filter><filter id="i" color-interpolation-filters="sRGB"><feFlood flood-color="#000" flood-opacity=".251" result="flood"/><feComposite in="flood" in2="SourceGraphic" operator="in" result="composite1"/><feGaussianBlur in="composite1" result="blur" stdDeviation="1"/><feOffset result="offset"/><feComposite in="SourceGraphic" in2="offset" result="composite2"/></filter><clipPath id="a" clipPathUnits="userSpaceOnUse"><path fill="#e30183" d="M-.945 158.919h134.021V289.83H-.945z"/></clipPath></defs><g stroke-width=".259" clip-path="url(#a)" transform="matrix(3.8203 0 0 3.91104 3.61 -621.538)"><circle cx="51.496" cy="211.543" r="19.5" fill="#5f2c83" filter="url(#b)" transform="translate(-19.404 -57.494) scale(1.23352)"/><circle cx="38.715" cy="231.789" r="22.5" fill="#cb202d" filter="url(#c)" transform="translate(-19.404 -57.494) scale(1.23352)"/><circle cx="78.526" cy="219.873" r="18.957" fill="#085ba7" filter="url(#d)" transform="translate(-19.404 -57.494) scale(1.23352)"/><circle cx="105.153" cy="233.009" r="17.5" fill="#35a849" filter="url(#e)" transform="translate(-19.404 -57.494) scale(1.23352)"/><circle cx="59.083" cy="244.872" r="20" fill="#ed7124" filter="url(#f)" transform="translate(-19.404 -57.494) scale(1.23352)"/><circle cx="79.342" cy="235.706" r="20" fill="#fcee21" filter="url(#g)" transform="matrix(1.15588 0 0 1.1559 -6.528 -30.107)"/><circle cx="79.342" cy="235.706" r="20" fill="#e30183" filter="url(#h)" transform="matrix(1.15588 0 0 1.1559 -26.083 -44.373)"/><path fill="#fff" d="M72.474 239.832c2.275-3.91 4.545-7.822 6.82-11.731-1.071-1.875-2.171-3.731-3.246-5.602-4.528-.046-9.054.038-13.58-.044-1.193 1.824-2.209 3.76-3.328 5.632 1.157 1.94 2.251 3.914 3.262 5.574 2.15.022 4.401.043 6.55-.017.889-1.691 1.866-3.342 2.824-4.985-1.175-.006-2.356-.019-3.53-.015-.362.629-.716 1.26-1.072 1.892-.964.022-1.995.043-2.99.05-.484-.822-.954-1.654-1.449-2.469.468-.881.956-1.751 1.505-2.585 3.348.091 6.697-.016 10.045.058.458.839.95 1.656 1.434 2.48a5578.62 5578.62 0 01-5.082 8.588c-3.365.042-7.065.073-10.014.098-1.692-2.886-3.358-5.788-5.052-8.673 1.65-2.89 3.374-5.735 4.992-8.641 4.559-.074 9.123.006 13.682-.045-.601-1.03-1.204-2.073-1.788-3.076-4.94.006-9.387.008-13.684 0-2.226 3.857-4.568 7.846-6.815 11.677 2.365 4.072 4.851 8.348 6.862 11.837 4.55-.027 9.102-.005 13.654-.004z" filter="url(#i)"/></g></svg>