<svg xmlns="http://www.w3.org/2000/svg" viewBox="0 0 512 512"><path fill="#5f2c83" d="M0 0h13.44c1.2.15 2.41.28 3.62.39 47.54 1.38 94.88 9.59 140.13 24.25 68.42 21.92 131.98 58.71 185.33 106.82 69.95 62.82 122.24 145.24 148.64 235.53 11.06 37.41 17.8 76.1 20.01 115.04.35 5.17.07 10.38.83 15.52V512h-69c.01-5.67-.04-11.34.04-17.01.2-5.38-1.63-10.61-1.02-16.01-1.73-22.78-5.03-45.49-10.2-67.77-3.69-17.93-9.61-35.28-15.45-52.59-4.06-10.77-8.32-21.46-13.04-31.96-7.88-15.63-15.25-31.55-24.64-46.35-13.48-22.26-29.09-43.2-46.24-62.75-2.5-3.47-5.75-6.27-8.71-9.3a150.508 150.508 0 00-22-22c-7.17-7.54-15.43-13.92-23.39-20.59-22.06-17.95-45.84-33.78-71.01-47.02-13.02-6.46-25.91-13.24-39.48-18.51-42.07-17.4-86.95-27.91-132.27-31.71C23.662 67.259 11.05 67.338 0 67z"/><path fill="#085ba7" d="M0 73.98c73.06.06 146.06 18.6 210.04 53.94 59.7 32.79 111.58 79.73 150.12 135.9 50.13 72.33 77.19 160.2 76.85 248.18H369c-.28-6.8.65-13.68-.58-20.41-2.56-46.82-14.22-93.28-34.27-135.73-2.92-7.68-7.55-14.52-11.16-21.86-12.73-22.53-27.43-44.01-44.54-63.44-3.28-4.67-8.09-7.96-11.45-12.56-4.16-5.49-9.58-9.79-14.77-14.23-5.09-5.62-11.04-10.3-16.77-15.22-19.53-16.06-40.65-30.22-63.02-41.99-7.43-4.65-15.65-7.76-23.58-11.42-31.24-13.78-64.41-23.27-98.28-27.7C33.045 144.625 16.401 144.484 0 144V73.98z"/><path fill="#35a849" d="M0 148.97c15.91.2 31.84.99 47.6 3.25 71.45 9.22 139.72 40.82 193.32 88.9 43.96 39.17 78.19 89.19 98.61 144.43 15.01 40.35 22.56 83.42 22.49 126.45H293c-.29-7.08.71-14.25-.72-21.24-1.39-26.08-6.65-52.01-15.41-76.63-3.01-10.1-7.41-19.69-11.72-29.27-2.27-6.35-6.36-11.77-9.16-17.86-11.44-20.47-25.37-39.52-41.22-56.77-5.54-5.46-11.03-10.97-16.5-16.5-16.16-14.52-33.59-27.7-52.45-38.56-16.77-9.3-34.12-17.71-52.44-23.55-20.39-7.18-41.68-11.56-63.14-13.96C19.958 216.16 9.663 216.295 0 216z"/><path fill="#fcee21" d="M0 223c7.99.08 15.99-.16 23.98.12 31.77 2.66 63.06 10.73 92.17 23.73 58.9 26.12 108.43 72.66 138.19 129.81 21.83 41.51 33.07 88.46 32.67 135.34H218c-.25-5.8.62-11.69-.58-17.41-1.86-27.3-8.89-54.41-21-79-8.97-18.95-20.76-36.62-34.99-52.02-2.87-4.06-6.78-7.22-10.16-10.83-3.37-3.68-7.7-6.27-11.07-9.96-35.03-29.33-79.26-48.1-124.97-51.05-4.98-1.25-10.15-.6-15.23-.72V223z"/><path fill="#ed7124" d="M0 296.97c49.08.27 97.84 18.07 135.39 49.7C158.11 365.69 176.9 389.41 190 416c14.74 29.68 22.26 62.87 22.02 96h-69.03c.48-12.61-1.61-25.18-4.58-37.41-2.12-9.97-6.3-19.32-10.39-28.61-5.87-11.02-12.55-21.73-21.13-30.86-5.04-6.94-12-12.03-18.31-17.71C64.524 378.65 26.66 365.713 0 366.02z"/><circle r="36" fill="#e3018f" cx="36" cy="476"/></svg>