<svg viewBox="0 0 1024 1024" xmlns="http://www.w3.org/2000/svg" fill-rule="evenodd" clip-rule="evenodd" stroke-linejoin="round" stroke-miterlimit="2"><path d="M983.821 294.744c0-122.757-104.165-222.421-232.467-222.421H286.422c-128.302 0-232.467 99.664-232.467 222.421v444.843c0 122.758 104.165 222.422 232.467 222.422h464.932c128.302 0 232.467-99.664 232.467-222.422V294.744z" fill="url(#_Linear1)" transform="matrix(1.07542 0 0 1.12399 -46.025 -69.29)"/><path fill="#fff" d="M220.635 685.661h582.733v15.734H220.635zM220.635 746.265h582.733V762H220.635zM220.635 477.626h582.733v15.734H220.635zM220.635 416.265h582.733V432H220.635z"/><path fill="#fff" d="M364.4 482.394L440.288 262l14.877 5.123-75.888 220.393z"/><path d="M351.734 686.298h-57.69l87.759-254.187h69.228l87.76 254.187H481.1L417.465 490.15h-2.098l-63.634 196.147zm-3.846-99.997h136.01v41.957h-136.01V586.3zM622.658 689.794c-12.237 0-23.076-2.098-32.516-6.293-9.44-4.196-17.133-10.49-22.727-18.88-5.244-8.392-8.041-18.881-8.041-31.468 0-10.84 1.748-19.58 5.594-26.922 4.195-6.993 9.44-12.937 16.083-17.133 6.643-4.545 14.335-7.692 22.727-10.14 8.74-2.097 17.831-3.845 27.271-4.545 10.84-1.398 19.93-2.447 26.573-3.496 6.993-1.049 11.888-2.447 15.034-4.545 2.797-2.098 4.546-5.245 4.546-9.09v-.7c0-8.042-2.448-13.986-7.343-18.53-4.895-4.197-11.888-6.294-20.978-6.294-9.44 0-17.132 2.097-22.727 6.293-5.594 4.196-9.44 9.44-11.188 15.734l-48.95-4.196c2.448-11.538 7.343-21.328 14.685-30.069 7.343-8.391 16.783-15.034 28.321-19.58 11.538-4.545 24.824-6.992 40.209-6.992 10.489 0 20.628 1.398 30.418 3.846 9.79 2.447 18.181 6.293 25.873 11.538 7.692 5.244 13.636 11.888 17.832 19.93 4.545 8.39 6.643 18.18 6.643 29.369v128.667h-49.998v-26.573h-1.749c-2.797 5.944-6.992 11.189-12.237 15.734-4.895 4.545-11.188 8.042-18.53 10.489-6.993 2.797-15.385 3.846-24.825 3.846zm15.034-36.362c7.693 0 14.685-1.749 20.63-4.546 5.943-3.146 10.838-7.342 13.985-12.587 3.496-5.594 5.244-11.538 5.244-18.18v-20.28c-1.748 1.05-3.846 2.098-6.643 3.147-3.147.7-6.293 1.398-9.79 2.098-3.496.699-6.993 1.398-10.839 2.098-3.496.35-6.643.699-9.44 1.398-6.293.7-11.887 2.098-16.433 4.196-4.545 2.098-8.041 4.545-10.839 8.041-2.447 3.497-3.846 7.343-3.846 12.587 0 6.993 2.798 12.587 8.042 16.433 5.245 3.846 11.888 5.595 19.93 5.595z" fill="#fff" fill-rule="nonzero"/><defs><linearGradient id="_Linear1" x1="0" y1="0" x2="1" y2="0" gradientUnits="userSpaceOnUse" gradientTransform="matrix(954.876 -911.683 952.856 913.616 42.797 968.819)"><stop offset="0" stop-color="#08aeea"/><stop offset="0" stop-color="#ff7901"/><stop offset="1" stop-color="#e30183"/></linearGradient></defs></svg>