<svg xmlns="http://www.w3.org/2000/svg" height="512" width="512"><path d="M256.231 512L34.854 384.188l105.083-121.52 116.295-6.293 46.6 117.504z" fill="#5f2c83"/><path d="M477.59 384.17L256.213 511.985V256.358l166.995-34.984z" fill="#cb202d"/><path d="M477.169 127.813V383.44l-110.69-63.907-110.688-63.906 85.045-151.44z" fill="#ed7124"/><path d="M255.79 0l221.377 127.813-110.69 63.907-110.688 63.906-89.546-153.56z" fill="#fcee21"/><path d="M34.41 127.815L255.788 0v255.625l-138.361-6.442z" fill="#35a849"/><path d="M34.833 384.173V128.547l110.69 63.907 110.69 63.906-110.69 63.907z" fill="#085ba7"/><path d="M353.532 178.61v-69.875l-97.938-56.012c-37.597 21.504-88.842 52.47-126.44 73.974V438.67l53.46 30.986V332.682a57924.576 57924.576 0 0 0 72.979-41.784 25702.705 25702.705 0 0 1 48.256 27.551v-60.41c-16.085-9.2-32.171-18.398-48.257-27.552-24.325 13.958-48.652 27.87-72.978 41.782V164.337l72.978-41.737z" style="line-height:normal;text-indent:0;text-align:start;text-decoration-line:none;text-decoration-style:solid;text-decoration-color:#000;text-transform:none;isolation:auto;mix-blend-mode:normal" overflow="visible" color="#000" font-family="sans-serif" white-space="normal" fill="#f9f9f9" fill-rule="evenodd"/></svg>