<svg xmlns="http://www.w3.org/2000/svg" viewBox="0 0 512 512"><defs><filter id="a" color-interpolation-filters="sRGB"><feFlood flood-color="#000" flood-opacity=".251" result="flood"/><feComposite in="flood" in2="SourceGraphic" operator="out" result="composite1"/><feGaussianBlur in="composite1" result="blur" stdDeviation="2"/><feOffset result="offset"/><feComposite in="offset" in2="SourceGraphic" operator="atop" result="composite2"/></filter></defs><path fill="#5f2c83" d="M256.231 512L34.854 384.188l105.083-121.52 116.295-6.293 46.6 117.504z"/><path fill="#cb202d" d="M477.59 384.17L256.213 511.985V256.358l166.995-34.984z"/><path fill="#ed7124" d="M477.169 127.813V383.44l-110.69-63.907-110.688-63.906 85.045-151.44z"/><path fill="#fcee21" d="M255.79 0l221.377 127.813-110.69 63.907-110.688 63.906-89.546-153.56z"/><path fill="#35a849" d="M34.41 127.815L255.788 0v255.625l-138.361-6.442z"/><path fill="#085ba7" d="M34.833 384.173V128.547l110.69 63.907 110.69 63.906-110.69 63.907z"/><path fill="#f9f9f9" fill-rule="evenodd" d="M353.532 178.61v-69.875l-97.938-56.012c-37.597 21.504-88.842 52.47-126.44 73.974V438.67l53.46 30.986V332.682a57924.576 57924.576 0 0072.979-41.784 25702.705 25702.705 0 0148.256 27.551v-60.41c-16.085-9.2-32.171-18.398-48.257-27.552-24.325 13.958-48.652 27.87-72.978 41.782V164.337l72.978-41.737z" color="#000" filter="url(#a)" font-family="sans-serif" overflow="visible" style="line-height:normal;text-indent:0;text-align:start;text-decoration-line:none;text-decoration-style:solid;text-decoration-color:#000;text-transform:none;isolation:auto;mix-blend-mode:normal"/></svg>