<svg xmlns="http://www.w3.org/2000/svg" viewBox="0 0 480 480"><path d="M480 240.08L359.931 448.27l-240-.08L0 239.922 120.069 31.728l240 .08z" fill="#e30183"/><path d="M344.687 421.054l-208.708.051 24.691-128.954 79.65-51.976 80.907 64.125z" fill="purple"/><path d="M448.98 240.171L344.687 421.054c-33.34-57.952-69.365-119.992-104.712-180.957l104.108-92.93z" fill="#d40000"/><path d="M344.437 58.895L448.98 240.354c-68.974-.568-139.107 1.214-208.66.336l-2.306-142.806z" fill="#f60"/><path d="M135.36 58.895h208.681l-52.17 90.466-51.552 91.33-126.604-72.962z" fill="#ffd42a"/><path d="M31.02 238.77L135.36 58.896l52.171 90.465 52.788 91.328-101.066 51.118z" fill="#8a0"/><path d="M135.96 421.102L31.02 238.77c70.386.956 139.657 2.044 209.3 1.921l-52.19 89.947z" fill="navy"/><path d="M344.687 421.054c34.786-60.218 69.505-120.481 104.293-180.7-16.389-28.882-33.214-57.47-49.644-86.285-69.227-.717-138.428.576-207.641-.679-18.229 28.098-33.76 57.923-50.875 86.757 17.688 29.873 34.42 60.289 49.881 85.861 32.86.337 67.291.66 100.154-.26 13.572-26.059 28.521-51.481 43.172-76.79-17.975-.09-36.032-.293-53.988-.228-5.525 9.68-10.936 19.4-16.379 29.136-14.74.345-30.508.656-45.721.76-7.391-12.654-14.578-25.463-22.148-38.012 7.154-13.586 14.61-26.985 23.011-39.825 51.181 1.398 102.387-.253 153.584.895 7.008 12.91 14.52 25.505 21.92 38.185-18.758 32.08-63.624 108.375-77.697 132.299-51.45.652-108.017 1.119-153.11 1.516-25.864-44.466-51.336-89.159-77.24-133.605 25.213-44.508 51.588-88.343 76.324-133.105 69.7-1.133 139.487.09 209.193-.687-9.192-15.887-18.416-31.936-27.339-47.392-75.534.093-143.53.12-209.23.004-34.028 59.403-69.836 120.854-104.187 179.87 36.151 62.727 74.168 128.592 104.905 182.336 69.583-.421 139.167-.07 208.762-.051z" fill="#fff"/></svg>