<svg viewBox="0 0 1024 1024" xmlns="http://www.w3.org/2000/svg" fill-rule="evenodd" clip-rule="evenodd" stroke-linejoin="round" stroke-miterlimit="2"><path d="M101.664 126.506c11.274-19.548 22.527-39.11 33.803-58.658-5.312-9.375-10.765-18.655-16.09-28.008-22.438-.233-44.867.187-67.3-.22-5.908 9.12-10.942 18.802-16.49 28.161 5.734 9.697 11.157 19.57 16.168 27.872 10.65.109 21.81.214 32.461-.085 4.4-8.459 9.244-16.711 13.993-24.926-5.826-.03-11.679-.096-17.499-.075-1.79 3.143-3.544 6.298-5.308 9.458-4.778.112-9.888.213-14.82.247-2.394-4.108-4.724-8.265-7.177-12.34 2.318-4.41 4.735-8.759 7.458-12.927 16.588.454 33.185-.082 49.779.29 2.27 4.192 4.706 8.28 7.104 12.396-6.08 10.413-20.621 35.18-25.183 42.946-16.675.211-35.01.363-49.625.492-8.383-14.434-16.639-28.942-25.035-43.37 8.173-14.447 16.721-28.677 24.738-43.207 22.591-.368 45.21.029 67.803-.223-2.98-5.157-5.97-10.367-8.861-15.384-24.482.03-46.52.039-67.814 0C22.739 28.23 11.133 48.177 0 67.335c11.717 20.361 24.039 41.742 34.001 59.188 22.553-.137 45.106-.023 67.663-.017z" fill="url(#_Linear1)" fill-rule="nonzero" transform="translate(12 11.996) scale(7.38187)"/><defs><linearGradient id="_Linear1" x1="0" y1="0" x2="1" y2="0" gradientUnits="userSpaceOnUse" gradientTransform="rotate(-44.975 163.14 67.262) scale(190.278)"><stop offset="0" stop-color="#9f1923"/><stop offset="1" stop-color="#e30183"/></linearGradient></defs></svg>