<svg xmlns="http://www.w3.org/2000/svg" viewBox="0 0 512 512"><defs><filter id="g" color-interpolation-filters="sRGB"><feFlood flood-opacity=".251" flood-color="#000" result="flood"/><feComposite in="flood" in2="SourceGraphic" operator="in" result="composite1"/><feGaussianBlur in="composite1" stdDeviation="4" result="blur"/><feOffset result="offset"/><feComposite in="SourceGraphic" in2="offset" result="composite2"/></filter><filter id="b" color-interpolation-filters="sRGB"><feFlood flood-opacity=".141" flood-color="#000" result="flood"/><feComposite in="flood" in2="SourceGraphic" operator="in" result="composite1"/><feGaussianBlur in="composite1" stdDeviation="4" result="blur"/><feOffset result="offset"/><feComposite in="SourceGraphic" in2="offset" result="composite2"/></filter><filter id="c" color-interpolation-filters="sRGB"><feFlood flood-opacity=".141" flood-color="#000" result="flood"/><feComposite in="flood" in2="SourceGraphic" operator="in" result="composite1"/><feGaussianBlur in="composite1" stdDeviation="4" result="blur"/><feOffset result="offset"/><feComposite in="SourceGraphic" in2="offset" result="composite2"/></filter><filter id="f" color-interpolation-filters="sRGB"><feFlood flood-opacity=".141" flood-color="#000" result="flood"/><feComposite in="flood" in2="SourceGraphic" operator="in" result="composite1"/><feGaussianBlur in="composite1" stdDeviation="4" result="blur"/><feOffset result="offset"/><feComposite in="SourceGraphic" in2="offset" result="composite2"/></filter><filter id="d" color-interpolation-filters="sRGB"><feFlood flood-opacity=".141" flood-color="#000" result="flood"/><feComposite in="flood" in2="SourceGraphic" operator="in" result="composite1"/><feGaussianBlur in="composite1" stdDeviation="4" result="blur"/><feOffset result="offset"/><feComposite in="SourceGraphic" in2="offset" result="composite2"/></filter><filter id="e" color-interpolation-filters="sRGB"><feFlood flood-opacity=".141" flood-color="#000" result="flood"/><feComposite in="flood" in2="SourceGraphic" operator="in" result="composite1"/><feGaussianBlur in="composite1" stdDeviation="4" result="blur"/><feOffset result="offset"/><feComposite in="SourceGraphic" in2="offset" result="composite2"/></filter><filter id="a" color-interpolation-filters="sRGB"><feFlood flood-opacity=".141" flood-color="#000" result="flood"/><feComposite in="flood" in2="SourceGraphic" operator="in" result="composite1"/><feGaussianBlur in="composite1" stdDeviation="4" result="blur"/><feOffset result="offset"/><feComposite in="SourceGraphic" in2="offset" result="composite2"/></filter></defs><path d="M162.717 16.06l162.668 93.916-81.335 46.958-81.333 46.958z" fill="#fcee21" filter="url(#a)"/><path d="M93.36 455.943V268.111l81.335 46.958 81.333 46.958-81.335 46.958z" fill="#085ba7" filter="url(#b)"/><path d="M0 214.66l162.667-93.917v187.832z" fill="#35a849" filter="url(#c)"/><path d="M512 296.596l-162.667 93.917V202.68z" fill="#cb202d" filter="url(#d)"/><path d="M349.38 495.94l-162.667-93.917 162.667-93.915z" fill="#5f2c83" filter="url(#e)"/><path d="M418.613 54.886v187.832l-81.334-46.959-81.333-46.957z" fill="#ed7124" filter="url(#f)"/><path d="M348.913 302.89l-92.473 53.39V249.5l74.254-.32z" fill="#fcee21"/><path d="M164.03 202.22l92.473-53.39-.05 106.776z" fill="#5f2c83"/><path d="M163.551 310.218v-106.78l46.237 26.695 46.236 26.694z" fill="#cb202d"/><path d="M256.56 360.555l-92.473-53.39 46.237-26.695 46.237-26.695z" fill="#ed7124"/><path d="M348.853 200.384v106.78l-46.238-26.695-46.237-26.694z" fill="#35a849"/><path d="M256.204 148.98l92.722 53.237-46.237 26.694-46.237 26.695v-53.39z" fill="#085ba7"/><path d="M256.055 112.826l-122.08 70.483c.19 47.3.303 94.141.382 141.21l122.258 70.453 122.09-70.49c.188-49.24.46-96.12.247-140.488-40.727-23.52-82.168-47.656-122.898-71.169zm.145 39.034l87.047 50.254-86.793 50.11-87.126-50.208zm-88.398 88.04l88.669 51.097 88.366-51.02.216 65.15-88.454 51.07-88.689-51.107z" style="line-height:normal;text-indent:0;text-align:start;text-decoration-line:none;text-decoration-style:solid;text-decoration-color:#000;text-transform:none;isolation:auto;mix-blend-mode:normal" overflow="visible" color="#000" font-family="sans-serif" fill="#fff" filter="url(#g)"/></svg>