<svg viewBox="0 0 1024 1024" xmlns="http://www.w3.org/2000/svg" fill-rule="evenodd" clip-rule="evenodd" stroke-linecap="round" stroke-linejoin="round" stroke-miterlimit="1.5"><path d="M983.821 294.744c0-122.757-104.165-222.421-232.467-222.421H286.422c-128.302 0-232.467 99.664-232.467 222.421v444.843c0 122.758 104.165 222.422 232.467 222.422h464.932c128.302 0 232.467-99.664 232.467-222.422V294.744z" fill="url(#_Linear1)" transform="matrix(1.07542 0 0 1.12399 -46.025 -69.29)"/><path fill="#fff" d="M262.155 734.017h499.998v27.966H262.155z"/><path d="M313.102 505.013l61.942 61.943-103.882 41.94 41.94-103.883m61.983 61.956l164.377-164.377-61.961-61.962-164.377 164.377 61.961 61.962m140.733-264.672l-30.971 30.971 61.943 61.942 30.971-30.971-61.943-61.942z" fill="#fff" stroke="#fff" stroke-width=".65" transform="matrix(1.54475 0 0 1.54003 -156.247 -203.764)"/><defs><linearGradient id="_Linear1" x1="0" y1="0" x2="1" y2="0" gradientUnits="userSpaceOnUse" gradientTransform="matrix(950.835 -904.596 945.448 909.75 42.797 967.531)"><stop offset="0" stop-color="#0186e4"/><stop offset="1" stop-color="#e30183"/></linearGradient></defs></svg>