<svg viewBox="0 0 1024 1024" xmlns="http://www.w3.org/2000/svg" fill-rule="evenodd" clip-rule="evenodd" stroke-linejoin="round" stroke-miterlimit="2"><path d="M983.821 294.744c0-122.757-104.165-222.421-232.467-222.421H286.422c-128.302 0-232.467 99.664-232.467 222.421v444.843c0 122.758 104.165 222.422 232.467 222.422h464.932c128.302 0 232.467-99.664 232.467-222.422V294.744z" fill="url(#_Linear1)" transform="matrix(1.07542 0 0 1.12399 -46.025 -69.29)"/><path d="M432.255 743.25c-1.679 9.374 5.038 18.75 16.793 18.75h125.944c10.076 0 18.472-9.376 16.793-18.75l-26.868-109.376c-1.68-7.812-8.396-12.5-16.793-12.5h-73.887c-8.397 0-15.114 4.688-16.793 12.5L432.255 743.25zm78.926-75c18.471 0 33.585 14.062 33.585 31.25 0 17.187-15.114 31.25-33.585 31.25-18.472 0-33.586-14.063-33.586-31.25 0-17.188 15.114-31.25 33.586-31.25zm50.377-109.376H460.803v31.25h100.755v-31.25zm0-46.875h-50.377v31.25h50.377V512zm-50.377-31.25h-50.378V512h50.378v-31.25zm50.377-31.25h-50.377v31.25h50.377V449.5zm-50.377-31.25h-50.378v31.25h50.378v-31.25zM561.558 387h-50.377v31.25h50.377V387zm-50.377-31.25h-50.378V387h50.378v-31.25zm50.377-31.25h-50.377v31.25h50.377V324.5zm-50.377-31.25h-50.378v31.25h50.378v-31.25zM561.558 262h-50.377v31.25h50.377V262z" fill="#fff"/><defs><linearGradient id="_Linear1" x1="0" y1="0" x2="1" y2="0" gradientUnits="userSpaceOnUse" gradientTransform="matrix(951.509 -907.173 948.142 910.394 42.123 970.108)"><stop offset="0" stop-color="#6101e3"/><stop offset="1" stop-color="#e30183"/></linearGradient></defs></svg>