<svg viewBox="0 0 1024 1024" xmlns="http://www.w3.org/2000/svg" fill-rule="evenodd" clip-rule="evenodd" stroke-linejoin="round" stroke-miterlimit="2"><path d="M983.821 294.744c0-122.757-104.165-222.421-232.467-222.421H286.422c-128.302 0-232.467 99.664-232.467 222.421v444.843c0 122.758 104.165 222.422 232.467 222.422h464.932c128.302 0 232.467-99.664 232.467-222.422V294.744z" fill="url(#_Linear1)" transform="matrix(1.07542 0 0 1.12399 -46.025 -69.29)"/><path d="M212 762l153.43-357.53 90.109 209.973 62.547-98.224L605.9 654.124l49.593-50.041L811.999 762H212z" fill="#fff"/><circle cx="758.834" cy="281" r="94" fill="#fff" transform="translate(69.547 100.798) scale(.79787)"/><defs><linearGradient id="_Linear1" x1="0" y1="0" x2="1" y2="0" gradientUnits="userSpaceOnUse" gradientTransform="matrix(951.509 -907.173 948.142 910.394 42.123 970.108)"><stop offset="0" stop-color="#e4d101"/><stop offset="1" stop-color="#e30183"/></linearGradient></defs></svg>